<?xml version="1.0" standalone="no"?><!DOCTYPE svg PUBLIC "-//W3C//DTD SVG 1.1//EN" "http://www.w3.org/Graphics/SVG/1.1/DTD/svg11.dtd"><svg height="1024" legacy-metrics="false" node-id="1" sillyvg="true" template-height="1024" template-width="1024" version="1.1" viewBox="0 0 1024 1024" width="1024" xmlns="http://www.w3.org/2000/svg" xmlns:xlink="http://www.w3.org/1999/xlink"><defs node-id="19"><linearGradient gradientUnits="userSpaceOnUse" id="SVGID_1_" node-id="4" x1="512" x2="512" y1="47" y2="977"><stop offset="0" stop-color="#bad7f5"></stop><stop offset="1" stop-color="#e2f0ff"></stop></linearGradient></defs><path d="M 977.00 512.00 C 977.00 635.33 928.01 753.60 840.80 840.80 C 753.60 928.01 635.33 977.00 512.00 977.00 C 388.67 977.00 270.40 928.01 183.20 840.80 C 95.99 753.60 47.00 635.33 47.00 512.00 C 47.00 388.67 95.99 270.40 183.20 183.20 C 270.40 95.99 388.67 47.00 512.00 47.00 C 635.33 47.00 753.60 95.99 840.80 183.20 C 928.01 270.40 977.00 388.67 977.00 512.00 Z" fill="url(#SVGID_1_)" fill-rule="nonzero" node-id="28" stroke="none" target-height="930" target-width="930" target-x="47" target-y="47"></path><g node-id="50"><path d="M 582.10 763.97 C 582.10 801.60 551.60 832.10 513.97 832.10 C 476.34 832.10 445.84 801.60 445.84 763.97 C 445.84 726.34 476.34 695.84 513.97 695.84 C 551.60 695.84 582.10 726.34 582.10 763.97 Z" fill="#438ada" fill-rule="nonzero" group-id="1" node-id="32" stroke="none" target-height="136.25995" target-width="136.25998" target-x="445.84" target-y="695.84"></path><path d="M 863.90 787.39 L 164.03 787.39 C 146.50 787.39 132.29 773.18 132.29 755.65 L 132.29 280.29 C 132.29 262.76 146.50 248.55 164.03 248.55 L 863.90 248.55 C 881.43 248.55 895.64 262.76 895.64 280.29 L 895.64 755.64 C 895.65 773.18 881.43 787.39 863.90 787.39 Z" fill="#438ada" fill-rule="nonzero" group-id="1" node-id="34" stroke="none" target-height="538.84" target-width="763.35004" target-x="132.29" target-y="248.55"></path><path d="M 169.77 271.97 L 858.16 271.97 L 858.16 763.97 L 169.77 763.97 Z" fill="#78b4f4" fill-rule="nonzero" group-id="1" node-id="36" stroke="none" target-height="491.99997" target-width="688.38995" target-x="169.77" target-y="271.97"></path><path d="M 679.00 213.13 C 574.75 214.03 522.42 263.75 522.42 263.75 C 522.42 263.75 442.23 219.62 353.73 219.62 C 265.23 219.62 195.77 263.75 195.77 263.75 L 195.77 730.59 C 195.77 730.59 267.47 695.75 364.93 695.75 C 462.39 695.75 520.65 730.59 520.65 730.59 C 520.65 730.59 587.87 696.91 680.85 696.91 C 773.83 696.91 830.96 730.59 830.96 730.59 L 830.96 263.74 C 830.96 263.74 777.22 214.12 678.90 213.13 L 679.00 213.13 Z" fill="#ffffff" fill-rule="nonzero" group-id="1" node-id="38" stroke="none" target-height="517.46" target-width="635.19" target-x="195.77" target-y="213.13"></path><path d="M 524.35 721.52 L 524.35 271.62 C 524.35 271.62 555.45 247.71 580.29 238.49 C 625.77 221.60 661.99 221.60 661.99 221.60 L 582.10 306.04 C 582.10 306.04 552.42 390.23 543.13 474.33 C 533.84 558.43 524.35 721.52 524.35 721.52 Z" fill="#cfdffc" fill-rule="nonzero" group-id="1" node-id="40" stroke="none" target-height="499.92" target-width="137.64001" target-x="524.35" target-y="221.6"></path><path d="M 473.38 364.10 L 266.43 364.10 C 254.95 364.10 245.64 354.79 245.64 343.31 L 245.64 340.99 C 245.64 329.51 254.95 320.20 266.43 320.20 L 473.38 320.20 C 484.86 320.20 494.17 329.51 494.17 340.99 L 494.17 343.31 C 494.16 354.79 484.86 364.10 473.38 364.10 Z" fill="#cfdffc" fill-rule="nonzero" group-id="1" node-id="42" stroke="none" target-height="43.899994" target-width="248.53001" target-x="245.64" target-y="320.2"></path><path d="M 436.54 452.35 L 266.43 452.35 C 254.95 452.35 245.64 443.04 245.64 431.56 L 245.64 429.24 C 245.64 417.76 254.95 408.45 266.43 408.45 L 436.54 408.45 C 448.02 408.45 457.33 417.76 457.33 429.24 L 457.33 431.56 C 457.32 443.05 448.02 452.35 436.54 452.35 Z" fill="#cfdffc" fill-rule="nonzero" group-id="1" node-id="44" stroke="none" target-height="43.899994" target-width="211.68999" target-x="245.64" target-y="408.45"></path><path d="M 473.38 540.61 L 266.43 540.61 C 254.95 540.61 245.64 531.30 245.64 519.82 L 245.64 517.50 C 245.64 506.02 254.95 496.71 266.43 496.71 L 473.38 496.71 C 484.86 496.71 494.17 506.02 494.17 517.50 L 494.17 519.82 C 494.16 531.31 484.86 540.61 473.38 540.61 Z" fill="#cfdffc" fill-rule="nonzero" group-id="1" node-id="46" stroke="none" target-height="43.899994" target-width="248.53001" target-x="245.64" target-y="496.71"></path><path d="M 436.54 628.87 L 266.43 628.87 C 254.95 628.87 245.64 619.56 245.64 608.08 L 245.64 605.76 C 245.64 594.28 254.95 584.97 266.43 584.97 L 436.54 584.97 C 448.02 584.97 457.33 594.28 457.33 605.76 L 457.33 608.08 C 457.32 619.57 448.02 628.87 436.54 628.87 Z" fill="#cfdffc" fill-rule="nonzero" group-id="1" node-id="48" stroke="none" target-height="43.900024" target-width="211.68999" target-x="245.64" target-y="584.97"></path></g></svg>