<?xml version="1.0" standalone="no"?><!DOCTYPE svg PUBLIC "-//W3C//DTD SVG 1.1//EN" "http://www.w3.org/Graphics/SVG/1.1/DTD/svg11.dtd"><svg t="1682493268232" class="icon" viewBox="0 0 1024 1024" version="1.1" xmlns="http://www.w3.org/2000/svg" p-id="1855" width="32" height="32" xmlns:xlink="http://www.w3.org/1999/xlink"><path d="M635.733333 970.666667H388.266667a176.341333 176.341333 0 0 1-113.066667-46.933334l-174.933333-174.933333a178.218667 178.218667 0 0 1-46.933334-113.066667V388.266667a176.341333 176.341333 0 0 1 46.933334-113.066667l174.933333-174.933333a178.218667 178.218667 0 0 1 113.066667-46.933334h247.466666a176.341333 176.341333 0 0 1 113.066667 46.933334l174.933333 174.933333a178.218667 178.218667 0 0 1 46.933334 113.066667v247.466666a176.341333 176.341333 0 0 1-46.933334 113.066667l-174.933333 174.933333a178.218667 178.218667 0 0 1-113.066667 46.933334z m-247.466666-853.333334a113.536 113.536 0 0 0-67.797334 28.16l-174.933333 174.933334A117.973333 117.973333 0 0 0 117.333333 388.266667v247.466666a113.536 113.536 0 0 0 28.16 67.797334l174.933334 174.933333a117.973333 117.973333 0 0 0 67.84 28.202667h247.466666a113.536 113.536 0 0 0 67.797334-28.16l174.933333-174.933334a118.186667 118.186667 0 0 0 28.202667-67.84V388.266667a113.536 113.536 0 0 0-28.16-67.797334l-174.933334-174.933333a118.186667 118.186667 0 0 0-67.84-28.202667z" fill="#f11e37" p-id="1856"></path><path d="M340.053333 683.904a32.170667 32.170667 0 0 1 0-45.226667l298.666667-298.666666a32 32 0 0 1 45.226667 45.226666l-298.666667 298.666667a31.914667 31.914667 0 0 1-45.226667 0z" fill="#f11e37" p-id="1857"></path><path d="M638.72 683.904l-298.666667-298.666667A32 32 0 0 1 385.237333 340.053333l298.666667 298.666667a32.170667 32.170667 0 0 1 0 45.226667 31.914667 31.914667 0 0 1-45.226667 0z" fill="#f11e37" p-id="1858"></path></svg>